<svg xmlns="http://www.w3.org/2000/svg" xmlns:svg="http://www.w3.org/2000/svg" version="1.1" id="svg1" width="681.2618050785054" height="146.78644722857533" viewBox="0 0 788.95782 170.41141">
  <defs id="defs1"/>
  <g id="g1" transform="translate(-298.04218,-57.588599)">
    <path style="fill:#0a1c5a;fill-opacity:1" d="M 1032,109 V 74 h 4.5 4.5 v 16.02551 16.02551 L 1056.6294,90.02551 1072.2589,74 h 5.3705 c 2.9538,0 5.3706,0.33124 5.3706,0.7361 0,0.40485 -5.687,6.43577 -12.6378,13.40205 l -12.6379,12.66595 1.9733,2.84795 c 1.0853,1.56637 7.6723,11.01492 14.6378,20.99677 6.9655,9.98186 12.6646,18.41936 12.6646,18.75 0,0.33065 -2.396,0.60118 -5.3245,0.60118 h -5.3245 l -12.347,-17.75 c -6.7907,-9.7625 -12.5051,-17.94787 -12.6985,-18.18971 -0.1934,-0.24184 -2.5912,1.76624 -5.3285,4.46241 L 1041,117.42482 V 130.71241 144 h -4.5 -4.5 z" id="path241"/>
    <path style="fill:#0a1c5a;fill-opacity:1" d="M 871.23702,109.26813 871.5,74.5 h 23.5 23.5 l 0.31037,3.75 0.31036,3.75 H 900.06037 881 V 92.5 103 h 18 18 v 4 4 h -18 -18 v 12.5 12.5 h 19.06037 19.06036 l -0.31036,3.75 -0.31037,3.75 -23.76298,0.26813 -23.76298,0.26813 z" id="path240"/>
    <path style="fill:#0a1c5a;fill-opacity:1" d="m 724.45483,142.74289 c -0.26532,-0.69141 -0.36369,-16.32891 -0.21861,-34.75 L 724.5,74.5 l 5,-0.25356 5,-0.25357 15.10705,22.75357 c 8.30888,12.51446 16.40888,25.00356 18,27.75356 l 2.89295,5 0.5,-27.5 0.5,-27.5 4.25,-0.3075 L 780,73.885 V 108.9425 144 l -4.75,-0.0246 -4.75,-0.0246 -16.61333,-25.2254 C 744.74934,104.85143 736.31943,91.925 735.15352,90 l -2.11983,-3.5 -0.0168,28.75 L 733,144 h -4.03138 c -2.31478,0 -4.2368,-0.53529 -4.51379,-1.25711 z" id="path239"/>
    <path id="path237" style="fill:#0a1c5a;fill-opacity:1" d="m 645.98974,143.25 c -0.006,-0.4125 6.39863,-16.1829 14.23171,-35.04533 l 14.24196,-34.29533 4.48607,0.29533 4.48607,0.29533 8.34081,20 c 4.58744,11 11.01444,26.40082 14.28222,34.22405 3.26778,7.82323 5.94142,14.48424 5.94142,14.80226 0,0.31801 -2.31739,0.44219 -5.14976,0.27595 l -5.14975,-0.30226 -3.80812,-9.5 -3.80812,-9.5 -15.29987,-0.27416 -15.29987,-0.27417 -3.82723,10.02417 L 655.83004,144 h -4.91502 c -2.70326,0 -4.91964,-0.3375 -4.92528,-0.75 z M 690,115.02603 c 0,-0.53568 -1.28408,-4.24818 -2.85351,-8.25 -1.56943,-4.00182 -4.10358,-10.59037 -5.63144,-14.64122 l -2.77793,-7.36519 -5.84602,15.36519 c -3.21531,8.45085 -5.85617,15.47769 -5.86856,15.61519 -0.0124,0.1375 5.15246,0.25 11.47746,0.25 6.79509,0 11.5,-0.39847 11.5,-0.97397 z"/>
    <path style="fill:#0a1c5a;fill-opacity:1" d="M 612.65207,137.79934 C 611.21387,134.3347 606.61582,122.725 602.43417,112 598.25252,101.275 593.29416,88.57219 591.41559,83.77153 589.53701,78.97087 588,74.78485 588,74.46927 c 0,-0.31558 2.29551,-0.43777 5.10114,-0.27153 L 598.20228,74.5 606.66776,97 c 4.65601,12.375 9.47159,25.55883 10.70129,29.2974 l 2.23582,6.7974 1.67567,-5.2974 C 622.20216,124.88383 626.97421,111.7 631.88509,98.5 l 8.92889,-24 5.09301,-0.30226 C 648.70814,74.0315 651,74.09461 651,74.33798 c 0,0.24337 -2.18326,6.00439 -4.85169,12.80226 -2.66843,6.79787 -7.8242,20.00976 -11.45728,29.35976 -3.63307,9.35 -7.46949,19.25 -8.52537,22 -1.8746,4.88231 -2.02547,5.00705 -6.40924,5.29934 l -4.48944,0.29934 z" id="path236"/>
    <path id="path234" style="fill:#0a1c5a;fill-opacity:1" d="M 524.23704,109.25 524.5,74.5 538,74.19463 c 7.45944,-0.16873 16.17369,0.20922 19.4754,0.84467 3.28647,0.63252 7.58528,1.97133 9.55291,2.97514 1.96763,1.00381 5.05591,3.32371 6.86285,5.15533 1.80694,1.83163 4.08454,4.90523 5.06133,6.83023 0.97679,1.925 2.34668,5.92386 3.0442,8.88635 0.76888,3.2656 1.0669,8.61316 0.75691,13.58191 -0.32174,5.15707 -1.28466,9.94386 -2.59723,12.91115 -1.14726,2.59357 -3.01019,5.89059 -4.13984,7.32671 -1.12966,1.43612 -3.77558,3.87726 -5.87983,5.42474 -2.10425,1.54748 -6.46539,3.5011 -9.69141,4.34137 C 556.42072,143.5205 549.77692,144 539.27694,144 h -15.30286 z m 32.31184,25.63337 c 2.58435,-0.65074 6.27672,-2.73818 8.84991,-5.0032 2.91933,-2.56969 4.95511,-5.47058 6.0083,-8.56151 0.89677,-2.63188 1.59291,-7.93331 1.59291,-12.13078 0,-4.10071 -0.51364,-9.17023 -1.14143,-11.2656 -0.62779,-2.09536 -2.47131,-5.42313 -4.09673,-7.39504 -1.62541,-1.97191 -4.72788,-4.48959 -6.89438,-5.59485 -2.95603,-1.50806 -6.80011,-2.1629 -15.40327,-2.62396 L 534,81.69405 V 108.84703 136 h 9.05718 c 4.98145,0 11.05272,-0.50248 13.4917,-1.11663 z"/>
    <path id="path232" style="fill:#0a1c5a;fill-opacity:1" d="m 446,143.11781 c 0,-0.4852 2.84845,-7.7977 6.32989,-16.25 3.48144,-8.45229 9.89394,-23.82441 14.25,-34.16027 L 474.5,73.91509 l 4.48122,0.29245 4.48122,0.29246 5.36609,13 c 2.95136,7.15 9.37231,22.55964 14.26879,34.24365 4.89647,11.68401 8.90268,21.49502 8.90268,21.80226 0,0.30723 -2.30283,0.42259 -5.11739,0.25635 L 501.76522,143.5 497.74494,133.75 493.72466,124 h -15.12078 -15.12079 l -3.93333,10 -3.93332,10 h -4.80822 C 448.1637,144 446,143.60302 446,143.11781 Z m 44,-27.92433 c 0,-0.44359 -1.71978,-5.28109 -3.82174,-10.75 -2.10196,-5.46891 -4.63421,-12.13343 -5.62722,-14.81003 l -1.80548,-4.86656 -5.86715,15.36656 c -3.22694,8.4516 -5.86969,15.47905 -5.87278,15.61655 -0.003,0.1375 5.16937,0.25 11.49437,0.25 6.325,0 11.5,-0.36293 11.5,-0.80652 z"/>
    <path style="fill:#0a1c5a;fill-opacity:1" d="m 975.5,143.85034 c -1.65,-0.60805 -4.575,-2.26533 -6.5,-3.68283 -1.925,-1.41751 -4.175,-3.48418 -5,-4.5926 -0.825,-1.10841 -2.26236,-3.82871 -3.19413,-6.04511 -1.43862,-3.42204 -1.70255,-7.9216 -1.75,-29.83459 L 959,73.89042 l 4.46979,0.30479 4.46979,0.30479 0.30409,25.5 c 0.25965,21.77351 0.55414,25.96342 2.01512,28.67116 0.94107,1.74414 3.16118,4.20376 4.93358,5.46582 2.28139,1.62449 5.02008,2.40911 9.37734,2.68656 4.64362,0.29568 7.27607,-0.10408 10.72155,-1.62818 2.99664,-1.32554 5.19284,-3.16764 6.38774,-5.35772 1.5866,-2.90798 1.8854,-6.68463 2.321,-29.33764 l 0.5,-26 4.8231,-0.30778 4.823,-0.30777 -0.323,26.80777 c -0.304,25.22683 -0.4504,27.04367 -2.4815,30.80778 -1.1871,2.2 -3.4371,5.18613 -5,6.63584 -1.5629,1.44971 -4.4166,3.44696 -6.3416,4.43833 -2.4279,1.25039 -6.2567,1.89121 -12.5,2.09211 -4.95,0.15929 -10.35,-0.20789 -12,-0.81594 z" id="path231"/>
    <path style="fill:#0a1c5a;fill-opacity:1" d="m 817.13946,143.90837 c -1.84829,-0.56256 -5.0356,-2.08026 -7.0829,-3.37267 -2.0473,-1.2924 -4.86739,-3.71061 -6.26687,-5.37379 -1.39948,-1.66319 -3.54306,-5.08671 -4.76351,-7.60782 -1.22045,-2.52112 -2.70554,-7.72716 -3.3002,-11.56897 -0.77493,-5.00646 -0.77493,-8.96378 0,-13.97024 0.59466,-3.84181 2.1135,-9.11757 3.37521,-11.72392 1.26171,-2.60634 4.15951,-6.6043 6.43956,-8.88435 2.51267,-2.51266 6.3885,-4.98474 9.83991,-6.27608 C 819.17794,73.70979 823.38209,73 828,73 c 4.54341,0 8.81823,0.70836 12.43007,2.05972 3.82477,1.43103 6.73229,3.45389 9.52566,6.62733 2.21132,2.51219 4.4734,6.19782 5.02685,8.19028 0.55345,1.99247 1.00878,4.18517 1.01184,4.87267 0.004,0.82865 -1.62645,1.25 -4.83613,1.25 -4.73789,0 -4.86607,-0.0813 -5.97768,-3.79153 -0.62479,-2.08534 -2.38352,-4.94911 -3.90829,-6.36393 -1.52478,-1.41483 -4.30197,-3.08364 -6.17154,-3.70848 -1.86958,-0.62483 -5.01958,-1.13355 -7,-1.13048 -1.98043,0.003 -5.40078,0.50007 -7.60078,1.10446 -2.44829,0.6726 -5.56312,2.72154 -8.02941,5.28177 -2.49977,2.59497 -4.68258,6.20529 -5.75,9.51036 C 805.77427,99.8323 805,105.24632 805,108.93333 c 0,3.68702 0.69432,9.04169 1.54293,11.89926 0.84861,2.85758 2.98225,6.8349 4.74142,8.83848 1.75917,2.00359 5.00235,4.46237 7.20707,5.46395 2.20472,1.00158 6.34179,1.83094 9.19348,1.84302 2.8517,0.0121 6.4517,-0.45564 8,-1.03937 1.54831,-0.58374 4.23126,-2.4271 5.96212,-4.09635 1.75906,-1.69646 3.69683,-4.99877 4.39365,-7.48759 l 1.24665,-4.45258 4.60634,0.29893 c 4.57516,0.2969 4.60448,0.32193 4.33224,3.69858 -0.15076,1.86982 -0.95912,4.84323 -1.79636,6.60758 -0.83724,1.76435 -2.94009,4.65811 -4.67299,6.43056 -1.7329,1.77246 -4.97454,4.16985 -7.20364,5.32753 -3.06137,1.58993 -6.25475,2.17351 -13.05291,2.38538 -4.95,0.15427 -10.51224,-0.17978 -12.36054,-0.74234 z" id="path230"/>
    <path style="fill:#c61c27;fill-opacity:1" d="m 450.69385,161.36052 c -0.35171,-0.35171 -0.40015,-1.02671 -0.10765,-1.5 C 450.88148,159.38275 592.31269,159 768.55902,159 1050.0621,159 1086,159.16982 1086,160.5 c 0,1.33018 -35.9259,1.5 -317.33333,1.5 -174.53334,0 -317.6211,-0.28777 -317.97282,-0.63948 z" id="path229"/>
    <path style="fill:#0a1c5a;fill-opacity:1" d="m 366.39361,183.25 c 1.33502,-2.6125 4.66437,-7.9 7.39857,-11.75 2.73419,-3.85 7.51912,-9.7 10.63317,-13 4.43528,-4.70012 5.52394,-5.45839 5.02508,-3.5 -0.35025,1.375 -2.73238,7.45 -5.29363,13.5 -4.61456,10.90022 -4.71547,11.03855 -11.12431,15.25 -3.55713,2.3375 -7.05221,4.25 -7.76684,4.25 -0.90748,0 -0.5673,-1.43254 1.12796,-4.75 z" id="path228"/>
    <path style="fill:#0a1c5a;fill-opacity:1" d="m 335.57129,191.02431 c -3.23141,-4.91097 -8.8444,-11.86927 -12.4733,-15.46288 C 319.4691,171.96782 314.925,167.8454 313,166.40051 c -1.925,-1.4449 -5.8625,-3.73411 -8.75,-5.08713 -2.8875,-1.35302 -5.24055,-2.98956 -5.229,-3.63674 0.0115,-0.64718 1.82246,-3.98919 4.02425,-7.42669 2.43991,-3.80925 4.69528,-6.25 5.7753,-6.25 0.97462,0 5.16482,2.22732 9.31154,4.94961 4.14673,2.72228 9.91501,7.08538 12.8184,9.69578 2.90339,2.6104 7.43983,7.60071 10.08097,11.08958 3.39718,4.48757 5.04083,5.96623 5.61818,5.05421 0.44886,-0.70905 4.89785,-10.06854 9.88664,-20.79886 4.9888,-10.73033 11.00511,-23.10533 13.36959,-27.5 2.36448,-4.39468 7.26778,-12.49032 10.89624,-17.99032 4.02075,-6.09464 10.52221,-13.94588 16.64754,-20.10376 5.52769,-5.55707 13.61292,-12.48394 17.96717,-15.39305 4.35425,-2.9091 11.55425,-6.98726 16,-9.06257 4.44575,-2.07531 10.67068,-4.44322 13.83318,-5.26202 3.1625,-0.81881 5.75,-1.27664 5.75,-1.0174 0,0.25923 -4.64721,5.05401 -10.32713,10.65506 -5.67993,5.60106 -13.72248,14.47401 -17.87234,19.71767 -4.14986,5.24367 -9.29015,10.84015 -11.42286,12.43663 -2.13272,1.59649 -7.86849,6.75622 -12.74616,11.46607 -4.87767,4.70985 -11.19236,11.48837 -14.03263,15.06337 -2.84028,3.575 -6.75893,8.75493 -8.70811,11.51096 -1.94919,2.75603 -6.04294,9.28103 -9.09723,14.5 -3.05428,5.21897 -9.6841,17.58904 -14.73292,27.48904 -5.04882,9.9 -9.50241,18.32701 -9.89685,18.7267 -0.39444,0.39968 -3.36106,-3.29137 -6.59248,-8.20234 z" id="path227"/>
    <path id="path225" style="fill:#0a1c5a;fill-opacity:1" d="m 1058.2274,194.74995 0.2726,-18.25 7.5,-0.31231 c 4.125,-0.17176 9.469,-0.0232 11.8756,0.3301 2.6199,0.38466 5.3282,1.5951 6.75,3.01686 1.8474,1.84741 2.3744,3.45247 2.3744,7.23133 0,3.44679 -0.5708,5.46962 -1.9662,6.96733 -1.0814,1.16074 -2.8814,2.40092 -4,2.75595 -1.1186,0.35503 -2.0338,1.05001 -2.0338,1.54439 0,0.49438 1.8,3.68382 4,7.08764 2.2,3.40383 4,6.56902 4,7.03375 0,0.46473 -1.2401,0.84496 -2.7557,0.84496 -2.3614,0 -3.3989,-1.07029 -7.25,-7.47859 -4.4564,-7.4156 -4.5301,-7.47877 -8.7443,-7.5 L 1064,198 v 7.5 7.5 h -3.0226 -3.0225 z m 21.5501,-3.3067 c 1.4238,-0.99731 2.2225,-2.594 2.2225,-4.4433 0,-1.8493 -0.7987,-3.44599 -2.2225,-4.4433 -1.4808,-1.03719 -4.4843,-1.5567 -9,-1.5567 H 1064 v 6 6 h 6.7775 c 4.5157,0 7.5192,-0.51951 9,-1.5567 z"/>
    <path style="fill:#0a1c5a;fill-opacity:1" d="M 1025,194.49995 V 176 h 12.5 12.5 v 2.5 2.5 h -10 -10 v 5.5 5.5 h 9.5 c 8.8333,0 9.5,0.14035 9.5,2 0,1.86035 -0.6667,2 -9.5477,2 h -9.5477 l 0.2977,6.11171 0.2977,6.11172 9.5,0.13828 c 9.042,0.13162 9.5154,0.24676 9.8196,2.38829 0.3168,2.23095 0.2131,2.25 -12.25,2.25 H 1025 Z" id="path224"/>
    <path style="fill:#0a1c5a;fill-opacity:1" d="M 987,194.43045 V 175.8609 l 2.25,0.31955 c 2.08226,0.29573 2.27177,0.89732 2.54206,8.06955 l 0.29207,7.75 H 1001 h 8.9159 l 0.292,-7.75 c 0.2875,-7.62864 0.3352,-7.75496 3.0421,-8.06642 l 2.75,-0.31642 V 194.43358 213 h -3 -3 v -8 -8 h -9 -9 v 8 c 0,7.86667 -0.0417,8 -2.5,8 H 987 Z" id="path223"/>
    <path style="fill:#0a1c5a;fill-opacity:1" d="m 962,197 v -16 h -6 c -5.75026,0 -6,-0.10517 -6,-2.52673 v -2.52674 l 14.75,0.27674 c 14.43902,0.2709 14.75674,0.32417 15.06955,2.52673 0.30357,2.13743 -0.009,2.25 -6.25,2.25 H 967 v 16 16 h -2.5 -2.5 z" id="path222"/>
    <path style="fill:#0a1c5a;fill-opacity:1" d="M 920,194.5 V 176 h 12.5 12.5 v 2.5 2.5 h -10 -10 v 5.5 5.5 h 9.5 c 8.83333,0 9.5,0.14035 9.5,2 0,1.85965 -0.66667,2 -9.5,2 H 925 l -10e-4,6.25 -10e-4,6.25 h 9.75106 c 9.35086,0 9.76417,0.0923 10.07061,2.25 0.31685,2.23095 0.21311,2.25 -12.25,2.25 H 920 Z" id="path221"/>
    <path style="fill:#0a1c5a;fill-opacity:1" d="m 817,197 v -16 h -6 c -5.73333,0 -6,-0.11111 -6,-2.5 V 176 h 15 15 v 2.5 c 0,2.38889 -0.26667,2.5 -6,2.5 h -6 v 16 16 h -3 -3 z" id="path220"/>
    <path style="fill:#0a1c5a;fill-opacity:1" d="M 761,194.5 V 176 h 12.5 12.5 v 2.5 2.5 h -10.05226 -10.05226 l 0.30226,5.25 0.30226,5.25 9.75,0.28621 c 8.92624,0.26203 9.75,0.45213 9.75,2.25 0,1.8208 -0.72813,1.96379 -10,1.96379 h -10 v 5.96379 5.96379 l 9.75,0.28621 c 9.24932,0.27151 9.76641,0.40175 10.06955,2.53621 0.31685,2.23095 0.21311,2.25 -12.25,2.25 H 761 Z" id="path219"/>
    <path id="path217" style="fill:#0a1c5a;fill-opacity:1" d="M 725,194.5 V 176 h 9.53212 c 5.88982,0 10.80728,0.5328 12.86931,1.39437 1.83545,0.7669 4.071,2.44203 4.96788,3.7225 C 753.26619,182.39735 754,185.04476 754,187 c 0,1.95524 -0.73274,4.60111 -1.6283,5.87971 -0.89557,1.2786 -2.91306,2.86493 -4.48332,3.52518 l -2.85502,1.20044 4.48332,7.20423 C 751.98251,208.77189 754,212.23569 754,212.50689 754,212.7781 752.72854,213 751.17454,213 c -2.42715,0 -3.49524,-1.0573 -7.57653,-7.5 -4.74281,-7.48696 -4.75876,-7.5 -9.17454,-7.5 H 730 v 7.5 c 0,7.33333 -0.0556,7.5 -2.5,7.5 H 725 Z m 22,-3.5 c 1.1,-1.1 2,-2.9 2,-4 0,-1.1 -0.9,-2.9 -2,-4 -1.64444,-1.64444 -3.33333,-2 -9.5,-2 H 730 v 6 6 h 7.5 c 6.16667,0 7.85556,-0.35556 9.5,-2 z"/>
    <path style="fill:#0a1c5a;fill-opacity:1" d="m 662,197 v -16 h -6 c -5.73333,0 -6,-0.11111 -6,-2.5 V 176 h 15 15 v 2.5 c 0,2.38889 -0.26667,2.5 -6,2.5 h -6 v 16 16 h -3 -3 z" id="path216"/>
    <path style="fill:#0a1c5a;fill-opacity:1" d="M 581.22744,194.75 581.5,176.5 H 594 c 12.20161,0 12.50763,0.0537 12.81955,2.25 0.31324,2.20553 0.12051,2.25 -9.75,2.25 H 587 v 5.5 5.5 h 9.5 c 8.83333,0 9.5,0.14035 9.5,2 0,1.85965 -0.66667,2 -9.5,2 H 587 v 8.5 8.5 h -3.02256 -3.02256 z" id="path215"/>
    <path id="path213" style="fill:#0a1c5a;fill-opacity:1" d="M 532.22744,194.75 532.5,176.5 540,176.18769 c 4.125,-0.17176 9.469,-0.0232 11.87556,0.3301 2.61997,0.38466 5.32824,1.5951 6.75,3.01686 C 560.50294,181.41203 561,182.97482 561,187 c 0,4.07183 -0.49134,5.58225 -2.45455,7.54545 -1.35,1.35 -3.15,2.45455 -4,2.45455 -0.85,0 -1.54545,0.47469 -1.54545,1.05487 0,0.58018 1.72163,3.61768 3.82585,6.75 2.10422,3.13232 4.15578,6.25763 4.55902,6.94513 0.52655,0.89774 -0.19935,1.24194 -2.57585,1.22141 -3.0436,-0.0263 -3.66582,-0.62789 -7.75723,-7.5 C 546.61753,198.02343 546.59009,198 542.30179,198 H 538 v 7.5 7.5 h -3.02256 -3.02256 z m 21.55005,-3.3067 C 555.20135,190.44599 556,188.8493 556,187 c 0,-1.8493 -0.79865,-3.44599 -2.22251,-4.4433 -1.4808,-1.03719 -4.4843,-1.5567 -9,-1.5567 H 538 v 6 6 h 6.77749 c 4.5157,0 7.5192,-0.51951 9,-1.5567 z"/>
    <path style="fill:#0a1c5a;fill-opacity:1" d="m 886.84781,212.03882 c -2.00871,-1.09243 -4.70264,-3.68557 -5.98652,-5.76253 -1.9026,-3.07788 -2.33432,-5.16339 -2.33432,-11.27629 0,-6.12686 0.43018,-8.19592 2.34963,-11.30107 1.2923,-2.09058 3.31124,-4.4279 4.48652,-5.19405 1.17528,-0.76614 4.16188,-1.84595 6.63688,-2.39959 3.0918,-0.6916 5.83022,-0.67189 8.75082,0.063 2.72791,0.68638 5.32532,2.29336 7.25,4.48545 1.64955,1.87873 2.99918,4.07521 2.99918,4.88108 0,0.83828 -0.93155,1.4652 -2.17717,1.4652 -1.23282,0 -3.3546,-1.4097 -4.89167,-3.25 -2.42173,-2.8995 -3.25487,-3.24235 -7.72512,-3.17903 -2.89368,0.041 -6.09141,0.77912 -7.56874,1.74711 -1.64838,1.08006 -3.0954,3.48541 -4.06897,6.76378 -1.18824,4.00124 -1.28684,6.13224 -0.46175,9.9795 0.73196,3.41301 1.9557,5.6547 4.04799,7.41525 2.1094,1.77494 4.18204,2.52339 6.9879,2.52339 2.19396,0 4.85477,-0.46334 5.91292,-1.02964 1.05815,-0.56631 2.60357,-2.34396 3.43426,-3.95034 C 905.32034,202.41363 906,200.62697 906,200.04966 906,199.45673 903.82437,199 901,199 c -4.66667,0 -5,-0.16667 -5,-2.5 0,-2.44444 0.16667,-2.5 7.5,-2.5 h 7.5 v 9.5 c 0,9.46667 -0.009,9.5 -2.5,9.5 -1.65961,0 -2.5,-0.55633 -2.5,-1.65499 0,-1.47817 -0.21768,-1.45799 -2.03747,0.1889 -1.35231,1.22383 -3.95849,1.95272 -7.75,2.16753 -4.26466,0.2416 -6.6382,-0.17979 -9.36472,-1.66262 z" id="path212"/>
    <path id="path210" style="fill:#0a1c5a;fill-opacity:1" d="m 846.57502,211.79136 c -2.40296,-1.40282 -4.82657,-4.00041 -6.25,-6.69864 C 838.68874,201.99099 838,199.01742 838,195.05461 c 0,-3.86802 0.7044,-7.00936 2.25,-10.03418 1.2375,-2.42184 3.40983,-5.24706 4.82739,-6.27827 1.41757,-1.03121 4.34257,-2.27752 6.5,-2.76959 2.42132,-0.55225 5.34044,-0.51678 7.62714,0.0927 2.03749,0.54304 5.02124,2.09529 6.63054,3.44943 1.60931,1.35414 3.65477,3.99781 4.54547,5.87483 0.97241,2.04919 1.61289,5.94942 1.60301,9.76162 -0.0122,4.71574 -0.59099,7.35361 -2.25,10.25485 -1.22845,2.14829 -3.465,4.81914 -4.97011,5.93522 -1.79636,1.33205 -4.71671,2.1516 -8.5,2.38538 -4.62642,0.28589 -6.53776,-0.0959 -9.68842,-1.93522 z M 862.41973,206.75 c 1.4118,-1.25493 3.07607,-4.3507 3.76316,-7 0.98283,-3.78956 0.97574,-5.70783 -0.0351,-9.48709 -0.69684,-2.60539 -1.96958,-5.51345 -2.82832,-6.46235 -0.85874,-0.9489 -3.08193,-2.22711 -4.94043,-2.84047 -2.52293,-0.83264 -4.28547,-0.81606 -6.95647,0.0654 -2.16438,0.71431 -4.33532,2.42363 -5.49627,4.32755 -1.37295,2.25162 -1.91993,5.00398 -1.9226,9.6744 -0.003,4.5207 0.52017,7.28764 1.70037,9 0.93726,1.35988 2.39976,3.0207 3.25,3.69071 0.85024,0.67 3.6583,1.2325 6.24013,1.25 3.48201,0.0236 5.34789,-0.54923 7.22549,-2.2182 z"/>
    <path style="fill:#0a1c5a;fill-opacity:1" d="m 693.36671,212.08194 c -1.7233,-1.05082 -3.8608,-2.94927 -4.75,-4.21877 C 687.30483,205.99019 687,202.76872 687,190.77749 V 176 h 2.5 2.5 v 14.04545 c 0,13.57913 0.0815,14.12695 2.45455,16.5 1.85445,1.85446 3.51909,2.45455 6.80887,2.45455 2.39487,0 5.22783,-0.63743 6.29545,-1.41652 1.72695,-1.26023 1.9963,-3.05325 2.44113,-16.25 l 0.5,-14.83348 2.75,-0.31642 2.75,-0.31642 -0.002,13.81642 c -0.001,11.1504 -0.33894,14.49178 -1.75,17.31642 -1.0003,2.00237 -3.24608,4.24815 -5.24845,5.24845 -1.925,0.96164 -5.525,1.74746 -8,1.74626 -2.66641,-0.001 -5.7767,-0.78068 -7.63329,-1.91277 z" id="path209"/>
    <path style="fill:#0a1c5a;fill-opacity:1" d="m 620.18982,211.97437 c -1.82059,-1.10999 -3.95809,-3.56886 -4.75,-5.46415 C 614.42743,204.08721 614,199.04709 614,189.53212 V 176 h 2.5 2.5 v 13.04966 c 0,9.49722 0.39827,13.81983 1.46301,15.87882 0.80466,1.55604 2.19147,3.10869 3.08179,3.45034 0.89033,0.34165 3.33212,0.62118 5.4262,0.62118 2.25622,0 4.76925,-0.7779 6.16822,-1.90935 2.25512,-1.8239 2.37527,-2.56238 2.68455,-16.5 L 638.14755,176 H 640.57377 643 v 14.04966 c 0,10.72849 -0.36606,14.75754 -1.54855,17.04422 -0.8517,1.64701 -2.9892,3.87298 -4.75,4.9466 -2.0483,1.24892 -5.00244,1.95204 -8.20145,1.95204 -3.25487,0 -6.15534,-0.70439 -8.31018,-2.01815 z" id="path208"/>
    <path style="fill:#0a1c5a;fill-opacity:1" d="m 501,212.24845 c -2.00237,-1.0003 -4.24815,-3.24608 -5.24845,-5.24845 -1.41106,-2.82464 -1.74874,-6.16602 -1.75,-17.31642 L 494,175.86716 l 2.75,0.31642 2.75,0.31642 0.5,14.83348 c 0.44483,13.19675 0.71418,14.98977 2.44113,16.25 1.06762,0.77909 3.90058,1.41652 6.29545,1.41652 3.28978,0 4.95442,-0.60009 6.80887,-2.45455 2.37306,-2.37305 2.45455,-2.92087 2.45455,-16.5 V 176 h 2.5 2.5 l -0.0147,14.25 c -0.01,9.38726 -0.44124,15.09287 -1.26457,16.71998 -0.68741,1.3585 -2.77232,3.496 -4.63314,4.75 -2.30588,1.55393 -4.84889,2.27953 -7.98543,2.27847 -2.53117,-8.6e-4 -6.17712,-0.78836 -8.10212,-1.75 z" id="path207"/>
    <path id="path205" style="fill:#0a1c5a;fill-opacity:1" d="m 460.85853,211.8425 c -2.00281,-1.16136 -4.59241,-3.80353 -5.75466,-5.87148 -1.16226,-2.06796 -2.38248,-5.72458 -2.71161,-8.12582 -0.32913,-2.40124 -0.0555,-6.38211 0.60806,-8.84638 0.66356,-2.46427 2.09542,-5.7289 3.18191,-7.25474 1.0865,-1.52584 3.37053,-3.49568 5.07562,-4.37742 1.7051,-0.88174 5.19131,-1.63471 7.74713,-1.67327 2.82525,-0.0426 6.18525,0.72259 8.57098,1.95197 2.44643,1.26066 4.80451,3.6 6.26228,6.21249 1.81806,3.25819 2.33823,5.72024 2.33823,11.06715 0,3.78221 -0.54594,7.93385 -1.2132,9.22587 -0.66726,1.29202 -2.16946,3.40439 -3.33823,4.69414 -1.16877,1.28976 -3.34019,2.97726 -4.82538,3.75 -1.48519,0.77275 -4.86019,1.39465 -7.5,1.38202 -3.03279,-0.0145 -6.14017,-0.80029 -8.44113,-2.13453 z m 15.0246,-4.47319 c 1.28047,-0.89688 2.9556,-3.13243 3.7225,-4.96788 0.76691,-1.83546 1.39437,-5.40623 1.39437,-7.93505 0,-2.52883 -0.50623,-5.58078 -1.12496,-6.78212 -0.61873,-1.20134 -2.0407,-3.18987 -3.15993,-4.41895 -1.11924,-1.22908 -3.49425,-2.50845 -5.27782,-2.84305 -2.0856,-0.39126 -4.49898,-0.0123 -6.7628,1.06196 -2.081,0.9875 -4.16473,3.02911 -5.09722,4.99418 -0.8675,1.82812 -1.57727,5.6407 -1.57727,8.47239 0,2.83169 0.67243,6.44887 1.49429,8.03817 0.82186,1.5893 2.49699,3.59195 3.7225,4.45034 1.22552,0.85838 4.05297,1.5607 6.28321,1.5607 2.23024,0 5.10265,-0.73381 6.38313,-1.63069 z"/>
    <path style="fill:#c61c27;fill-opacity:1" d="m 338.79817,220.25 c -2.01665,-4.2625 -6.20647,-11.8 -9.31071,-16.75 -3.10425,-4.95 -8.69311,-13.05 -12.41969,-18 -3.72659,-4.95 -9.80848,-12.2625 -13.51532,-16.25 -3.70685,-3.9875 -6.12484,-7.25 -5.37333,-7.25 0.75151,0 4.27787,1.6875 7.83635,3.75 3.55848,2.0625 9.87092,7.125 14.02766,11.25 4.15673,4.125 9.38522,10.2 11.61885,13.5 2.23363,3.3 5.28375,8.4172 6.77803,11.37156 1.49428,2.95435 3.06899,4.97935 3.49936,4.5 0.43036,-0.47936 6.09007,-11.22156 12.57714,-23.87156 6.48707,-12.65 14.21866,-26.92416 17.1813,-31.72035 2.96265,-4.79619 8.12335,-12.44619 11.46824,-17 3.34488,-4.55381 10.36107,-12.44215 15.59153,-17.52965 5.23046,-5.0875 9.90079,-9.25 10.37852,-9.25 0.47773,0 -1.32743,4.3875 -4.01146,9.75 -2.68403,5.3625 -6.37438,13.54346 -8.20077,18.1799 -2.74827,6.9767 -4.40064,9.50984 -9.58526,14.69445 -3.4455,3.4455 -8.96689,9.9092 -12.26975,14.36377 -3.30287,4.45457 -8.45114,12.46707 -11.44061,17.80555 -2.98948,5.33848 -5.74948,10.7672 -6.13334,12.06383 -0.65722,2.22001 -0.18445,2.09093 8.10685,-2.2134 4.84263,-2.514 9.03193,-4.34374 9.30957,-4.0661 0.27764,0.27764 -1.00317,3.29867 -2.84625,6.7134 -1.84308,3.41473 -5.75213,9.86376 -8.68678,14.33118 -2.93465,4.46741 -8.07095,10.65491 -11.41401,13.75 -3.34306,3.09508 -6.84806,5.62742 -7.78888,5.62742 -1.15157,0 -2.90886,-2.53272 -5.37724,-7.75 z" id="path129"/>
  </g>
</svg>