<svg xmlns="http://www.w3.org/2000/svg" xmlns:xlink="http://www.w3.org/1999/xlink" xmlns:serif="http://www.serif.com/" width="316.22776601683796" height="316.22776601683796" viewBox="0 0 1598 1598" version="1.1" xml:space="preserve" style="fill-rule:evenodd;clip-rule:evenodd;stroke-linejoin:round;stroke-miterlimit:2;"><g><path d="M1597.62,798.813c0,441.187 -357.625,798.812 -798.813,798.812c-441.187,0 -798.812,-357.625 -798.812,-798.813c0,-441.187 357.625,-798.812 798.813,-798.812c441.187,0 798.812,357.625 798.812,798.813Zm-414.438,-375.844c-4.468,-6.875 -8.156,-12.813 -11.062,-17.844c-11.344,-19.531 -18.125,-40.031 -20.375,-61.469c-0.344,-3.531 -1.219,-3.656 -2.563,-0.375c-14.593,34.906 -18.687,71.594 -12.312,110.063c1.563,9.406 3.156,18.094 4.75,26.062c0.313,12.438 1.156,24.281 2.563,35.563c1.031,8.437 -0.719,18.343 -5.282,29.687c-6.594,-28.344 -19.937,-53.5 -40,-75.469c-1.031,-1.125 -1.406,-0.937 -1.125,0.563c5.844,31.906 2.813,62.406 -9.094,91.437c-9.343,22.813 -23.156,47.125 -29.343,73.594c-9.875,42.313 9.468,82.406 36.781,114.813c18.531,21.968 38.75,42.843 60.656,62.687c2.219,2.031 2.594,1.469 1.063,-1.625c-0.594,-1.218 -1.813,-3.094 -3.657,-5.594c-13.093,-18 -22.656,-38 -28.687,-59.968c21.469,28.156 44.375,53.031 68.719,74.625c9.093,8.062 10.125,7.125 3.156,-2.782c-26.875,-38.187 -39.5,-76.343 -32.906,-124.5c2.281,-16.718 6.062,-35.281 11.281,-55.718c5.031,-19.75 7.344,-36.625 6.875,-50.625c-0.313,-9.094 -0.438,-18.188 -0.406,-27.219c19.375,34.438 45.406,76.594 42.875,119.969c-1.032,17.875 -5.25,29.531 -10.407,44.843c-12.312,36.5 -13.031,71.688 -0.093,108.532c0.281,0.843 0.718,1.437 1.312,1.718c0.563,0.282 1.219,-0.093 1.25,-0.718c2.563,-47.657 17.563,-85.532 38.188,-133.719c6.343,-14.844 12.093,-33.031 17.218,-54.625c1.344,0.938 2.063,1.656 2.157,2.188c3.093,19.093 2.562,37.906 -1.594,56.468c-0.031,0.094 -2.875,8.719 -8.594,25.844c-11,33.031 -7.719,68.344 2.031,101.813c1.407,4.75 2.219,4.656 2.438,-0.282c0.875,-18.093 4.156,-36.468 9.875,-55.156c1.844,-5.969 3.25,-5.875 4.219,0.313c2.5,15.437 8.75,32.312 18.781,50.656c0.437,0.812 1.656,0.562 1.75,-0.344c1.187,-12.406 1.812,-18.781 1.844,-19.187c2.156,-23.969 11.375,-46.125 27.687,-66.469c10.531,-13.125 20.938,-26.906 34.063,-44.125c31.843,-41.781 29.468,-89.094 7.468,-135.219c-13.218,-27.719 -28.375,-53.906 -45.437,-78.5c-4.938,-7.125 -5.781,-6.656 -2.5,1.375c17.969,44.156 22,85.375 3.375,129.75c-2.313,5.5 -3.375,5.25 -3.156,-0.719c1.125,-34.156 -7,-66.031 -24.407,-95.562c-19.375,-32.875 -44.875,-62.844 -63.906,-89.219c-16.312,-22.562 -33.625,-55.562 -34.594,-82.687c-0.218,-6.25 -1.5,-6.469 -3.843,-0.657c-9.5,23.719 -15.188,49.657 -17.032,77.813Zm-608.187,142.344c6.25,-0 12.469,-0.157 18.594,-0.438c0.437,-0.031 0.781,-0.375 0.781,-0.812l-0,-135.125c-0,-0.938 0.781,-1.719 1.719,-1.719l43.656,-0c0.906,-0 1.375,-0.469 1.375,-1.375l-0,-30.625c-0,-0.969 -0.469,-1.438 -1.438,-1.469c-3.843,-0.125 -25.437,-0.156 -64.812,-0.125c-39.344,0.031 -60.969,0.094 -64.813,0.219c-0.937,-0 -1.437,0.5 -1.437,1.469l0.062,30.625c0,0.906 0.469,1.375 1.375,1.375l43.657,-0.063c0.937,0 1.718,0.75 1.718,1.719l0.188,135.125c-0,0.437 0.344,0.781 0.781,0.812c6.156,0.282 12.344,0.407 18.594,0.407Zm119.062,-108.282l0,-61.812c0,-1.094 -0.562,-1.656 -1.656,-1.656l-35.687,-0c-1.344,-0 -1.938,0.656 -1.782,2c1.594,13.687 2.375,24.843 2.344,33.5c-0.094,41.593 0,86.375 0.219,134.281c-0,1.219 0.625,1.844 1.875,1.844l33.094,-0c1.062,-0 1.593,-0.532 1.593,-1.594c0.032,-27.594 0.063,-51.063 0.094,-70.406c0.031,-14.438 6.438,-22.875 19.281,-25.344c10.938,-2.094 18.75,0.656 23.469,8.219c2.531,4.062 3.844,11.093 3.938,21.125c0.093,9.156 0.281,31.187 0.562,66.031c0,1.312 0.656,1.969 2,1.969l34.375,-0c1.094,-0 1.594,-0.532 1.5,-1.625c-1.031,-13.188 -1.594,-39.719 -1.687,-79.625c-0.063,-29.907 -23.5,-52.532 -53.75,-44.907c-11.219,2.844 -19.844,9.188 -25.844,19.094c-2.625,4.344 -3.938,3.969 -3.938,-1.094Zm143.719,57.719c-0.125,-0.687 0.375,-1.344 1.094,-1.344l80.312,-0.125c0.563,0 1.032,-0.406 1.125,-0.937c5.907,-28.406 -3.125,-58.781 -30.937,-69.875c-9.313,-3.719 -18,-5.281 -26.063,-4.688c-33.562,2.438 -53.625,20.719 -60.156,54.844c-5.5,28.5 8.094,60.188 36.375,70.5c24.469,8.906 48.625,7.469 72.531,-4.281c2.032,-1 3.282,-3.063 3.282,-5.281l-0.032,-20.188c0,-3 -1.25,-3.656 -3.75,-2.031c-23.906,15.469 -65.937,21.219 -73.781,-16.594Zm-517.274,131.256c0.524,-10.85 -8.257,-20.068 -19.609,-20.639c-11.367,-0.554 -20.992,7.789 -21.53,18.627c-0.524,10.85 8.257,20.069 19.609,20.639c11.367,0.555 20.992,-7.789 21.53,-18.627Zm-63.913,154.65c0.625,0 1.156,-0.531 1.156,-1.156l-0,-31.375c-0,-0.625 -0.531,-1.156 -1.156,-1.156l-64.094,-0c-0.625,-0 -1.156,-0.531 -1.156,-1.156l-0,-135.657c-0,-0.625 -0.532,-1.156 -1.157,-1.156l-36.531,0c-0.625,0 -1.156,0.531 -1.156,1.156l-0,169.344c-0,0.625 0.531,1.156 1.156,1.156l102.938,0Zm130.187,-104.406l0,-65.531c0,-1.156 -0.562,-1.719 -1.719,-1.719l-36.125,0c-1.125,0 -1.625,0.563 -1.531,1.656c1.094,11.282 2.594,27.969 2.625,41.125c0.094,41.594 0.094,83.969 -0.062,127.157c-0,0.968 0.781,1.75 1.75,1.75l33.343,-0c1.219,-0 1.813,-0.594 1.813,-1.813l-0,-13.656c-0,-5.5 1.5,-5.938 4.5,-1.344c14.25,21.969 43.5,26.875 64.937,12.969c42,-27.156 33.719,-126.25 -28,-123.438c-17.593,0.813 -30.718,8.625 -39.375,23.438c-0.593,1.031 -2.156,0.594 -2.156,-0.594Zm528.531,100.906c-1.187,-6.718 -1.781,-15.093 -1.812,-25.156c-0.031,-43.344 -0.031,-90.406 -0.063,-141.125c0,-1.219 -0.593,-1.812 -1.812,-1.812l-36.094,-0c-1.312,-0 -1.875,0.656 -1.656,1.937c1.844,11.781 2.812,24.688 2.906,38.688c0.063,8.031 0.125,51.187 0.156,129.437c0,0.781 0.625,1.438 1.407,1.438l36.593,-0c1.313,-0 1.875,-0.657 1.719,-1.969c-0.094,-0.656 -0.562,-1.125 -1.344,-1.438Zm-380.781,-47.031c-0.156,-0.687 0.375,-1.344 1.094,-1.344l80.281,0c0.531,0 1.031,-0.406 1.125,-0.937c5.938,-28.375 -3.031,-58.781 -30.812,-69.906c-9.282,-3.719 -17.969,-5.313 -26.032,-4.719c-33.562,2.375 -53.656,20.625 -60.25,54.719c-5.531,28.468 8,60.187 36.25,70.531c24.438,8.937 48.625,7.562 72.532,-4.156c2,-1 3.281,-3.032 3.281,-5.282l-0,-20.187c-0,-2.969 -1.25,-3.656 -3.75,-2.031c-23.938,15.437 -65.938,21.125 -73.719,-16.688Zm139.906,-50.125c-0.281,-3.906 -0.437,-11.031 -0.406,-21.375c0,-1.156 -0.562,-1.719 -1.687,-1.719l-31.907,0c-1,0 -1.781,0.875 -1.656,1.875c1.719,14.063 2.563,25.094 2.563,33.094c-0.032,31.563 -0.094,60.438 -0.219,86.625c-0.031,1.406 0.687,2.125 2.094,2.125l36.031,0c0.906,0 1.625,-0.844 1.469,-1.75c-2.094,-12.719 -2.969,-26.75 -2.657,-42.094c0.157,-7.468 -0.968,-23.062 2.75,-31.968c6.969,-16.625 22.219,-23.25 39.094,-15.407c3.031,1.407 5,2.219 5.969,2.469c1.125,0.281 1.687,-0.156 1.687,-1.312l0,-31.344c0,-1.781 -1.156,-3.375 -2.875,-3.906c-16.343,-5.094 -29.562,-1.563 -39.687,10.656c-3.844,4.687 -5.375,9.531 -7.281,14.531c-1.813,4.719 -2.907,4.531 -3.282,-0.5Zm142.219,87.531l0,10.782c0,1.531 0.781,2.312 2.313,2.312l32.562,0c1.063,0 1.625,-0.531 1.719,-1.625c0.031,-0.5 -0.156,-0.969 -0.563,-1.375c-0.718,-0.75 -1.156,-1.625 -1.25,-2.656c-2.031,-20.688 -1.718,-33.25 -1.781,-61c-0.031,-17.25 -1.344,-28.719 -4,-34.375c-5.844,-12.469 -15.719,-20.438 -29.656,-23.875c-23.75,-5.875 -47.125,-1.969 -70.156,11.687c-1.813,1.063 -2.907,3 -2.907,5.094l0,25.094c0,2.094 0.75,2.437 2.282,1c14.125,-13.25 40.875,-25.75 60.156,-17.563c5.406,2.282 9.875,9.969 6.344,16.063c-5.563,9.687 -21.157,11.344 -34.532,13.719c-8.187,1.468 -16.562,4.5 -25.125,9.125c-27.062,14.656 -23,52.656 6.032,62.218c13.968,4.594 27.718,2.875 41.281,-5.187c4.437,-2.625 7.25,-6.219 12.25,-11.438c3.344,-3.5 5.031,-2.843 5.031,2Zm-498.109,-109.973c-0.016,-0.464 -0.391,-0.839 -0.852,-0.835l-35.561,0.373c-0.478,-0.002 -0.853,0.373 -0.835,0.852l1.278,122.056c0.017,0.465 0.392,0.84 0.853,0.835l35.561,-0.372c0.478,0.002 0.853,-0.373 0.835,-0.853l-1.279,-122.056Zm999.734,249.911c-2.344,5.594 -5.719,11.031 -10.062,16.375c-16.657,20.375 -38.125,43.406 -64.407,69.125c-1.781,1.75 -2.968,3.062 -3.562,3.906c-1.844,2.625 -1.344,3.156 1.469,1.594c53.531,-29.906 100.062,-72.188 139.656,-121.844c5.844,-7.312 15.531,-21.125 13.344,-30.781c-0.219,-1 -0.844,-1.625 -1.844,-1.906c-6.625,-1.844 -13.031,-1.375 -19.25,1.343c-23.281,10.157 -41.25,17.438 -53.875,21.813c-60.219,20.812 -119.344,18.687 -177.438,-6.344c-19.375,-8.344 -42.343,-18.375 -68.937,-30.156c-59.25,-26.188 -30.5,39.312 -21.156,59.094c20.093,42.531 -55.532,37.843 -16,83.812c11.75,13.656 19.718,23.656 23.875,30c6.437,9.813 10.625,19.781 4.156,28.656c-9.375,12.907 -18.813,24.594 -28.313,35c-44.75,49.125 -81.562,84.532 -135.968,134.282c-49.844,45.593 -108.657,98.468 -176.438,158.687c-6.125,5.438 -5.625,6.125 1.469,2.031c52.625,-30.187 100.156,-60.437 142.562,-90.781c66.5,-47.531 130.469,-100.469 191.938,-158.781c18.687,-17.719 34.656,-36.094 47.906,-55.157c11.188,-16.093 15.75,-34 5.531,-52.187c-6.218,-11 -21.156,-25.469 -26.593,-43.938c-0.282,-1 -0.282,-2 0.062,-3c2.594,-7.625 8.5,-11.968 15.563,-18.187c7.593,-6.719 -0.282,-23.406 -3.719,-31.875c-0.75,-1.844 0.469,-3.906 2.437,-4.094c4.688,-0.469 9.094,0.063 13.188,1.594c22.844,8.625 47.187,14.437 73.094,17.469c9.031,1.062 20.156,1.031 33.375,-0.094c31.062,-2.625 61.406,-5.125 89.156,-16.625c2,-0.844 4.25,-1.438 6.75,-1.719c1.5,-0.187 2.625,1.313 2.031,2.688Zm-965.562,49.531c20.625,0.219 32.906,0.125 36.875,-0.281c26.281,-2.75 43.062,-14.657 50.343,-35.719c5.532,-16.031 4.938,-31.063 -1.781,-45.156c-10.875,-22.719 -31.469,-29.532 -56.437,-31.032c-8.532,-0.5 -30.844,-0.593 -67,-0.281c-1.688,0.031 -2.532,0.875 -2.532,2.563l0,166.218c0,1.782 0.875,2.657 2.657,2.657l34.75,-0c0.875,-0 1.312,-0.438 1.312,-1.313l0,-55.875c0,-1.187 0.594,-1.781 1.813,-1.781Zm393.187,-66.375l0,-32.313c0,-1.281 -0.625,-1.906 -1.906,-1.906l-16.844,0c-1.594,0 -2.437,0.781 -2.531,2.375c-1.188,21.031 -7.125,39.781 -33.125,37.469c-1.469,-0.125 -2.219,0.562 -2.219,2.031l0,19.688c0,1.5 0.75,2.25 2.281,2.25l15.719,-0c1.375,-0 2.031,0.687 1.969,2.062c-0.281,8.094 -0.281,25.813 -0,53.219c0.281,28.75 15.094,43.594 44.437,44.562c3.282,0.094 10.375,-1.343 21.344,-4.375c3.719,-1.031 5.594,-3.468 5.594,-7.343l-0,-20.969c-0,-3.156 -1.188,-3.688 -3.563,-1.594c-10.781,9.469 -29.843,7.844 -30.875,-10.437c-0.531,-9.438 -0.593,-27.313 -0.218,-53.656c0.031,-0.969 0.531,-1.438 1.5,-1.438l30.218,0c0.907,0 1.657,-0.75 1.657,-1.656l-0,-24.625c-0,-1.094 -0.563,-1.625 -1.657,-1.625l-30.062,-0c-1.156,-0 -1.719,-0.563 -1.719,-1.719Zm-216.562,112.25l-0,10.781c-0,1.532 0.781,2.313 2.312,2.313l32.563,0.031c1.062,0 1.625,-0.531 1.718,-1.625c0,-0.5 -0.187,-0.969 -0.562,-1.375c-0.75,-0.75 -1.156,-1.625 -1.25,-2.656c-2.031,-20.688 -1.688,-33.25 -1.75,-60.969c-0,-17.25 -1.313,-28.719 -3.969,-34.375c-5.812,-12.469 -15.687,-20.438 -29.625,-23.875c-23.719,-5.906 -47.125,-2.031 -70.125,11.625c-1.812,1.063 -2.906,3 -2.906,5.094l-0.031,25.062c-0,2.094 0.75,2.438 2.281,1c14.125,-13.218 40.875,-25.687 60.156,-17.5c5.406,2.281 9.844,9.969 6.313,16.063c-5.563,9.687 -21.157,11.312 -34.532,13.687c-8.187,1.438 -16.562,4.469 -25.125,9.094c-27.062,14.625 -23.031,52.625 6,62.187c13.938,4.625 27.688,2.907 41.25,-5.125c4.438,-2.625 7.25,-6.218 12.25,-11.437c3.375,-3.5 5.032,-2.813 5.032,2Zm97.187,-87.531c-0.281,-3.875 -0.406,-11 -0.375,-21.375c0,-1.125 -0.562,-1.719 -1.687,-1.719l-31.907,-0.031c-1,-0 -1.781,0.875 -1.656,1.875c1.688,14.062 2.531,25.093 2.5,33.093c-0.062,31.563 -0.187,60.438 -0.344,86.625c-0.031,1.407 0.688,2.126 2.094,2.126l36.031,0.062c0.907,0 1.625,-0.844 1.469,-1.75c-2.062,-12.719 -2.937,-26.75 -2.594,-42.094c0.157,-7.468 -0.937,-23.062 2.813,-31.968c7,-16.625 22.25,-23.219 39.094,-15.344c3.031,1.375 5.031,2.219 5.968,2.469c1.125,0.281 1.688,-0.157 1.688,-1.313l0.062,-31.344c0,-1.781 -1.156,-3.375 -2.875,-3.906c-16.312,-5.125 -29.562,-1.594 -39.687,10.594c-3.875,4.687 -5.406,9.531 -7.313,14.531c-1.812,4.688 -2.906,4.531 -3.281,-0.531Zm232.031,56.281c-1.187,0.156 -1.906,-0.187 -2.156,-1c-3.125,-9.937 -11.312,-35.437 -24.594,-76.531c-0.406,-1.188 -1.218,-1.781 -2.468,-1.781l-37.157,-0c-1.5,-0 -1.968,0.687 -1.375,2.093l47.407,112.813c0.75,1.781 0.781,3.781 0.031,5.562l-19.281,46.032c-0.532,1.218 -0.125,1.843 1.218,1.843l33.407,0c1.281,0 2.468,-0.781 2.968,-1.968l68.657,-164.032c0.468,-1.156 -0.344,-2.406 -1.594,-2.406l-36.781,0c-1,0 -1.875,0.656 -2.188,1.625l-24.406,76.375c-0.281,0.813 -0.844,1.281 -1.688,1.375Z" style="fill:#1a1e3c;fill-rule:nonzero;"/><path d="M1272.56,644.875c-1.501,-9.094 -4.501,-18.469 -9.001,-28.125c-15.718,-33.594 -34.312,-65.25 -53.156,-97.156c-13.094,-22.188 -21.469,-46.25 -25.125,-72.157c-1.062,-7.593 -1.75,-15.75 -2.094,-24.468c1.844,-28.157 7.532,-54.094 17.032,-77.813c2.343,-5.812 3.625,-5.594 3.843,0.656c0.969,27.125 18.282,60.125 34.594,82.688c19.031,26.375 44.531,56.344 63.906,89.219c17.407,29.531 25.532,61.406 24.407,95.562c-0.219,5.969 0.843,6.219 3.156,0.719c18.625,-44.375 14.594,-85.594 -3.375,-129.75c-3.281,-8.031 -2.438,-8.5 2.5,-1.375c17.063,24.594 32.219,50.781 45.438,78.5c21.999,46.125 24.374,93.437 -7.469,135.219c-13.125,17.218 -23.532,31 -34.063,44.125c-16.312,20.343 -25.531,42.5 -27.687,66.468c-0.032,0.407 -0.657,6.782 -1.844,19.188c-0.094,0.906 -1.313,1.156 -1.75,0.344c-10.031,-18.344 -16.281,-35.219 -18.781,-50.657c-0.969,-6.187 -2.375,-6.281 -4.219,-0.312c-5.719,18.688 -9,37.063 -9.875,55.156c-0.219,4.938 -1.031,5.032 -2.438,0.282c-9.749,-33.469 -13.031,-68.782 -2.031,-101.813c5.719,-17.125 8.563,-25.75 8.594,-25.844c4.156,-18.562 4.688,-37.375 1.594,-56.468c-0.094,-0.532 -0.813,-1.25 -2.157,-2.188Z" style="fill:#e47538;fill-rule:nonzero;"/><path d="M1183.19,422.969c0.343,8.719 1.031,16.875 2.093,24.469c3.656,25.906 12.031,49.968 25.125,72.156c18.844,31.906 37.438,63.562 53.156,97.156c4.5,9.656 7.5,19.031 9,28.125c-5.125,21.594 -10.875,39.781 -17.218,54.625c-20.625,48.188 -35.625,86.063 -38.188,133.719c-0.031,0.625 -0.687,1 -1.25,0.718c-0.593,-0.281 -1.031,-0.875 -1.312,-1.718c-12.938,-36.844 -12.219,-72.032 0.093,-108.532c5.157,-15.312 9.375,-26.968 10.407,-44.843c2.531,-43.375 -23.5,-85.532 -42.875,-119.969c-2.532,-19.031 -9.25,-36.469 -20.125,-52.281c-6.219,-9.032 -13.032,-18.094 -20.469,-27.188c-1.594,-7.969 -3.188,-16.656 -4.75,-26.062c-6.375,-38.469 -2.281,-75.156 12.313,-110.063c1.343,-3.281 2.218,-3.156 2.562,0.375c2.25,21.438 9.031,41.938 20.375,61.469c2.906,5.031 6.594,10.969 11.063,17.844Z" style="fill:#f1910a;fill-rule:nonzero;"/><path d="M574.875,393.625c39.375,-0.031 60.969,0 64.813,0.125c0.968,0.031 1.437,0.5 1.437,1.469l0,30.625c0,0.906 -0.469,1.375 -1.375,1.375l-43.656,-0c-0.938,-0 -1.719,0.781 -1.719,1.719l0,135.125c0,0.437 -0.344,0.781 -0.781,0.812c-6.125,0.281 -12.344,0.438 -18.594,0.438c-6.25,-0 -12.438,-0.125 -18.594,-0.407c-0.437,-0.031 -0.781,-0.375 -0.781,-0.812l-0.188,-135.125c0,-0.969 -0.781,-1.719 -1.718,-1.719l-43.656,0.063c-0.907,-0 -1.375,-0.469 -1.375,-1.375l-0.063,-30.625c-0,-0.969 0.5,-1.469 1.438,-1.469c3.843,-0.125 25.468,-0.188 64.812,-0.219Z" style="fill:#e47538;fill-rule:nonzero;"/><path d="M694.063,457.031c-0,5.063 1.312,5.438 3.937,1.094c6,-9.906 14.625,-16.25 25.844,-19.094c30.25,-7.625 53.687,15 53.75,44.906c0.093,39.907 0.656,66.438 1.687,79.625c0.094,1.094 -0.406,1.625 -1.5,1.625l-34.375,0c-1.344,0 -2,-0.656 -2,-1.968c-0.281,-34.844 -0.469,-56.875 -0.562,-66.031c-0.094,-10.032 -1.407,-17.063 -3.938,-21.126c-4.719,-7.562 -12.531,-10.312 -23.469,-8.218c-12.843,2.468 -19.25,10.906 -19.281,25.344c-0.031,19.343 -0.062,42.812 -0.094,70.406c0,1.062 -0.531,1.593 -1.593,1.593l-33.094,0c-1.25,0 -1.875,-0.625 -1.875,-1.843c-0.219,-47.907 -0.313,-92.688 -0.219,-134.282c0.032,-8.656 -0.75,-19.812 -2.343,-33.5c-0.157,-1.343 0.437,-2 1.781,-2l35.687,0c1.094,0 1.657,0.563 1.657,1.657l-0,61.812Z" style="fill:#e47538;fill-rule:nonzero;"/><path d="M837.781,514.75c7.844,37.813 49.875,32.063 73.781,16.594c2.5,-1.625 3.75,-0.969 3.75,2.031l0.032,20.188c-0,2.218 -1.25,4.281 -3.282,5.281c-23.906,11.75 -48.062,13.187 -72.531,4.281c-28.281,-10.312 -41.875,-42 -36.375,-70.5c6.531,-34.125 26.594,-52.406 60.156,-54.844c8.063,-0.593 16.75,0.969 26.063,4.688c27.812,11.094 36.844,41.469 30.937,69.875c-0.093,0.531 -0.562,0.937 -1.125,0.937l-80.312,0.125c-0.719,0 -1.219,0.657 -1.094,1.344Zm1.75,-22.031l50.25,-0.375c0.406,-0 0.688,-0.313 0.688,-0.688l-0,-3c-0.125,-14.625 -11.469,-26.406 -25.375,-26.312l-1.25,-0c-13.938,0.094 -25.125,12.031 -25,26.687l-0,3c-0,0.375 0.312,0.688 0.687,0.688Z" style="fill:#e47538;fill-rule:nonzero;"/><path d="M839.531,492.719c-0.375,-0 -0.687,-0.313 -0.687,-0.688l-0,-3c-0.125,-14.656 11.062,-26.594 25,-26.687l1.25,-0c13.906,-0.094 25.25,11.687 25.375,26.312l-0,3c-0,0.375 -0.282,0.688 -0.688,0.688l-50.25,0.375Z" style="fill:#1a1e3c;fill-rule:nonzero;"/><path d="M1138.91,544.656c-1,7.406 -3.218,15.125 -6.687,23.125c-22.844,52.875 -52.032,99.5 -21.25,154.875c3.781,6.781 8.625,14.281 14.531,22.438c6.031,21.968 15.594,41.968 28.688,59.968c1.843,2.5 3.062,4.376 3.656,5.594c1.531,3.094 1.156,3.656 -1.063,1.625c-21.906,-19.844 -42.125,-40.719 -60.656,-62.687c-27.313,-32.407 -46.656,-72.5 -36.781,-114.813c6.187,-26.469 20,-50.781 29.343,-73.594c11.907,-29.031 14.938,-59.531 9.094,-91.437c-0.281,-1.5 0.094,-1.688 1.125,-0.563c20.063,21.969 33.406,47.125 40,75.469Z" style="fill:#f1910a;fill-rule:nonzero;"/><path d="M1141.62,479.406c7.438,9.094 14.25,18.156 20.469,27.188c10.875,15.812 17.593,33.25 20.125,52.281c-0.032,9.031 0.093,18.125 0.406,27.219c0.469,14 -1.844,30.875 -6.875,50.625c-5.219,20.437 -9,39 -11.281,55.718c-6.594,48.157 6.031,86.313 32.906,124.5c6.969,9.907 5.938,10.844 -3.156,2.782c-24.344,-21.594 -47.25,-46.469 -68.719,-74.625c-5.906,-8.157 -10.75,-15.657 -14.531,-22.438c-30.782,-55.375 -1.594,-102 21.25,-154.875c3.468,-8 5.687,-15.719 6.687,-23.125c4.563,-11.344 6.313,-21.25 5.282,-29.687c-1.407,-11.282 -2.25,-23.125 -2.563,-35.563Z" style="fill:#e47538;fill-rule:nonzero;"/><path d="M300.898,625.367c11.352,0.555 20.139,9.803 19.609,20.639c-0.53,10.836 -10.177,19.182 -21.53,18.627c-11.352,-0.555 -20.139,-9.803 -19.609,-20.639c0.53,-10.836 10.177,-19.182 21.53,-18.627Z" style="fill:#e47538;"/><path d="M256.594,800.656l-102.938,0c-0.625,0 -1.156,-0.531 -1.156,-1.156l0,-169.344c0,-0.625 0.531,-1.156 1.156,-1.156l36.531,-0c0.625,-0 1.157,0.531 1.157,1.156l-0,135.656c-0,0.625 0.531,1.157 1.156,1.157l64.094,-0c0.625,-0 1.156,0.531 1.156,1.156l-0,31.375c-0,0.625 -0.531,1.156 -1.156,1.156Z" style="fill:#e47538;fill-rule:nonzero;"/><path d="M386.781,696.25c0,1.188 1.563,1.625 2.156,0.594c8.657,-14.813 21.782,-22.625 39.375,-23.438c61.719,-2.812 70,96.281 28,123.438c-21.437,13.906 -50.687,9 -64.937,-12.969c-3,-4.594 -4.5,-4.156 -4.5,1.344l0,13.656c0,1.219 -0.594,1.813 -1.813,1.813l-33.343,-0c-0.969,-0 -1.75,-0.782 -1.75,-1.75c0.156,-43.188 0.156,-85.563 0.062,-127.157c-0.031,-13.156 -1.531,-29.843 -2.625,-41.125c-0.094,-1.093 0.406,-1.656 1.531,-1.656l36.125,0c1.157,0 1.719,0.563 1.719,1.719l0,65.531Zm29.125,79.656c17.031,0 30.844,-16.718 30.844,-37.343c0,-20.625 -13.813,-37.344 -30.844,-37.344c-17.031,-0 -30.844,16.719 -30.844,37.344c0,20.625 13.813,37.343 30.844,37.343Z" style="fill:#e47538;fill-rule:nonzero;"/><path d="M915.313,797.156c0.781,0.313 1.25,0.781 1.343,1.438c0.156,1.312 -0.406,1.968 -1.718,1.968l-36.594,0c-0.782,0 -1.406,-0.656 -1.406,-1.437c-0.032,-78.25 -0.094,-121.406 -0.157,-129.438c-0.093,-14 -1.062,-26.906 -2.906,-38.687c-0.219,-1.281 0.344,-1.938 1.656,-1.938l36.094,0c1.219,0 1.813,0.594 1.813,1.813c0.031,50.719 0.031,97.781 0.062,141.125c0.031,10.063 0.625,18.438 1.813,25.156Z" style="fill:#e47538;fill-rule:nonzero;"/><path d="M534.531,750.125c7.781,37.813 49.781,32.125 73.719,16.688c2.5,-1.625 3.75,-0.938 3.75,2.031l-0,20.187c-0,2.25 -1.281,4.282 -3.281,5.282c-23.907,11.718 -48.094,13.093 -72.532,4.156c-28.25,-10.344 -41.781,-42.063 -36.25,-70.531c6.594,-34.094 26.688,-52.344 60.25,-54.719c8.063,-0.594 16.75,1 26.032,4.719c27.781,11.125 36.75,41.531 30.812,69.906c-0.094,0.531 -0.594,0.937 -1.125,0.937l-80.281,0c-0.719,0 -1.25,0.657 -1.094,1.344Zm1.719,-21.781l50.375,-0.625c0.375,-0 0.687,-0.313 0.687,-0.688l-0.062,-3.187c-0.156,-14.563 -11.781,-26.25 -25.906,-26.063l-0.563,0c-14.125,0.188 -25.437,12.125 -25.281,26.688l0.062,3.187c0,0.375 0.313,0.688 0.688,0.688Z" style="fill:#e47538;fill-rule:nonzero;"/><path d="M674.438,700c0.375,5.031 1.468,5.219 3.281,0.5c1.906,-5 3.437,-9.844 7.281,-14.531c10.125,-12.219 23.344,-15.75 39.688,-10.657c1.718,0.532 2.875,2.125 2.875,3.907l-0,31.343c-0,1.157 -0.563,1.594 -1.688,1.313c-0.969,-0.25 -2.937,-1.063 -5.969,-2.469c-16.875,-7.843 -32.125,-1.218 -39.093,15.407c-3.719,8.906 -2.594,24.5 -2.75,31.968c-0.313,15.344 0.562,29.375 2.656,42.094c0.156,0.906 -0.563,1.75 -1.469,1.75l-36.031,-0c-1.406,-0 -2.125,-0.719 -2.094,-2.125c0.125,-26.188 0.188,-55.063 0.219,-86.625c-0,-8 -0.844,-19.031 -2.563,-33.094c-0.125,-1 0.657,-1.875 1.657,-1.875l31.906,0c1.125,0 1.687,0.563 1.687,1.719c-0.031,10.344 0.125,17.469 0.407,21.375Z" style="fill:#e47538;fill-rule:nonzero;"/><path d="M816.656,787.531c0,-4.844 -1.687,-5.5 -5.031,-2c-5,5.219 -7.813,8.813 -12.25,11.438c-13.563,8.062 -27.313,9.781 -41.281,5.187c-29.032,-9.562 -33.094,-47.562 -6.032,-62.219c8.563,-4.625 16.938,-7.656 25.125,-9.125c13.375,-2.375 28.969,-4.031 34.532,-13.718c3.531,-6.094 -0.938,-13.782 -6.344,-16.063c-19.281,-8.187 -46.031,4.313 -60.156,17.563c-1.532,1.437 -2.282,1.093 -2.282,-1l0,-25.094c0,-2.094 1.094,-4.031 2.907,-5.094c23.031,-13.656 46.406,-17.562 70.156,-11.687c13.937,3.437 23.812,11.406 29.656,23.875c2.656,5.656 3.969,17.125 4,34.375c0.063,27.75 -0.25,40.312 1.781,61c0.094,1.031 0.532,1.906 1.25,2.656c0.407,0.406 0.594,0.875 0.563,1.375c-0.094,1.094 -0.656,1.625 -1.719,1.625l-32.562,0c-1.531,0 -2.313,-0.781 -2.313,-2.312l0,-10.782Zm-4.093,-48.75c-5.001,3.594 -8.469,5.75 -10.438,6.469c-13.5,4.969 -20.969,7.75 -22.438,8.344c-7.593,3.094 -10.843,8.219 -9.781,15.406c0.875,6 8,10.625 12.906,10.906c26.782,1.532 32.719,-18.312 30.657,-40.687c-0.063,-0.688 -0.375,-0.844 -0.907,-0.438Z" style="fill:#e47538;fill-rule:nonzero;"/><path d="M318.547,677.558l1.279,122.056c0.004,0.466 -0.37,0.848 -0.835,0.853l-35.561,0.372c-0.465,0.005 -0.847,-0.369 -0.852,-0.835l-1.279,-122.056c-0.004,-0.465 0.37,-0.847 0.835,-0.852l35.561,-0.373c0.465,-0.004 0.847,0.37 0.852,0.835Z" style="fill:#e47538;"/><path d="M536.25,728.344c-0.375,-0 -0.688,-0.313 -0.688,-0.688l-0.062,-3.187c-0.156,-14.563 11.156,-26.5 25.281,-26.688l0.563,0c14.125,-0.187 25.75,11.5 25.906,26.063l0.063,3.187c-0,0.375 -0.313,0.688 -0.688,0.688l-50.375,0.625Z" style="fill:#1a1e3c;fill-rule:nonzero;"/><path d="M446.75,738.563c-0,20.61 -13.821,37.343 -30.844,37.343c-17.023,0 -30.844,-16.733 -30.844,-37.343c0,-20.611 13.821,-37.344 30.844,-37.344c17.023,-0 30.844,16.733 30.844,37.344Z" style="fill:#1a1e3c;"/><path d="M812.563,738.781c0.531,-0.406 0.843,-0.25 0.906,0.438c2.062,22.375 -3.875,42.218 -30.656,40.687c-4.907,-0.281 -12.032,-4.906 -12.907,-10.906c-1.062,-7.188 2.188,-12.313 9.782,-15.406c1.468,-0.594 8.937,-3.375 22.437,-8.344c1.969,-0.719 5.438,-2.875 10.438,-6.469Z" style="fill:#1a1e3c;fill-rule:nonzero;"/><path d="M1318.28,927.469c0.594,-1.375 -0.531,-2.875 -2.031,-2.688c-2.5,0.282 -4.75,0.875 -6.75,1.719c-27.75,11.5 -58.094,14 -89.156,16.625c-13.219,1.125 -24.344,1.156 -33.375,0.094c-25.907,-3.032 -50.25,-8.844 -73.094,-17.469c-4.094,-1.531 -8.5,-2.063 -13.188,-1.594c-1.968,0.188 -3.187,2.25 -2.437,4.094c3.438,8.469 11.313,25.156 3.719,31.875c-7.063,6.219 -12.969,10.562 -15.563,18.187c-0.343,1 -0.343,2 -0.062,3c5.437,18.469 20.375,32.938 26.593,43.938c10.219,18.187 5.657,36.094 -5.531,52.187c-13.25,19.063 -29.219,37.438 -47.906,55.157c-61.469,58.312 -125.438,111.25 -191.938,158.781c-42.406,30.344 -89.937,60.594 -142.562,90.781c-7.094,4.094 -7.594,3.407 -1.469,-2.031c67.781,-60.219 126.594,-113.094 176.438,-158.688c54.406,-49.749 91.218,-85.156 135.968,-134.281c9.5,-10.406 18.938,-22.093 28.313,-35c6.469,-8.875 2.281,-18.843 -4.156,-28.656c-4.157,-6.344 -12.125,-16.344 -23.875,-30c-39.532,-45.969 36.093,-41.281 16,-83.813c-9.344,-19.781 -38.094,-85.281 21.156,-59.093c26.594,11.781 49.562,21.812 68.937,30.156c58.094,25.031 117.219,27.156 177.438,6.344c12.625,-4.375 30.594,-11.657 53.875,-21.813c6.219,-2.718 12.625,-3.187 19.25,-1.343c1,0.281 1.625,0.906 1.844,1.906c2.187,9.656 -7.5,23.468 -13.344,30.781c-39.594,49.656 -86.125,91.938 -139.656,121.844c-2.813,1.562 -3.313,1.031 -1.469,-1.594c0.594,-0.844 1.781,-2.156 3.562,-3.906c26.282,-25.719 47.75,-48.75 64.407,-69.125c4.343,-5.344 7.718,-10.782 10.062,-16.375Z" style="fill:#fff;fill-rule:nonzero;"/><path d="M350.906,978.781l0,55.875c0,0.875 -0.437,1.313 -1.312,1.313l-34.75,-0c-1.781,-0 -2.656,-0.875 -2.656,-2.657l-0,-166.218c-0,-1.688 0.843,-2.532 2.531,-2.563c36.156,-0.312 58.469,-0.219 67,0.281c24.969,1.5 45.562,8.313 56.437,31.032c6.719,14.093 7.313,29.125 1.782,45.156c-7.282,21.062 -24.063,32.969 -50.344,35.719c-3.969,0.406 -16.25,0.5 -36.875,0.281c-1.219,-0 -1.813,0.594 -1.813,1.781Zm0.125,-81.281l-0.25,45.5c0,0.625 0.5,1.125 1.125,1.156l30.938,0.157c13.125,0.062 23.812,-9.969 23.875,-22.375l-0,-2.751c0.062,-12.437 -10.5,-22.562 -23.625,-22.624l-30.938,-0.157c-0.625,-0.031 -1.125,0.469 -1.125,1.094Z" style="fill:#e47538;fill-rule:nonzero;"/><path d="M747.625,912.344l30.063,-0c1.093,-0 1.656,0.531 1.656,1.625l-0,24.625c-0,0.906 -0.75,1.656 -1.656,1.656l-30.219,0c-0.969,0 -1.469,0.469 -1.5,1.438c-0.375,26.343 -0.313,44.218 0.219,53.656c1.031,18.281 20.093,19.906 30.875,10.437c2.375,-2.093 3.562,-1.562 3.562,1.594l0,20.969c0,3.875 -1.875,6.312 -5.594,7.343c-10.968,3.032 -18.062,4.469 -21.343,4.375c-29.344,-0.968 -44.157,-15.812 -44.438,-44.562c-0.281,-27.406 -0.281,-45.125 0,-53.219c0.063,-1.375 -0.594,-2.062 -1.969,-2.062l-15.718,-0c-1.532,-0 -2.282,-0.75 -2.282,-2.25l0,-19.688c0,-1.469 0.75,-2.156 2.219,-2.031c26,2.312 31.938,-16.438 33.125,-37.469c0.094,-1.594 0.938,-2.375 2.531,-2.375l16.844,0c1.281,0 1.906,0.625 1.906,1.906l0,32.313c0,1.156 0.563,1.719 1.719,1.719Z" style="fill:#e47538;fill-rule:nonzero;"/><path d="M351.031,897.5c0,-0.625 0.5,-1.125 1.125,-1.094l30.938,0.157c13.125,0.062 23.687,10.187 23.625,22.624l-0,2.751c-0.063,12.406 -10.75,22.437 -23.875,22.375l-30.938,-0.157c-0.625,-0.031 -1.125,-0.531 -1.125,-1.156l0.25,-45.5Z" style="fill:#1a1e3c;fill-rule:nonzero;"/><path d="M529.344,1022.88c-0,-4.813 -1.657,-5.5 -5.032,-2c-5,5.219 -7.812,8.813 -12.25,11.438c-13.562,8.031 -27.312,9.749 -41.25,5.124c-29.031,-9.562 -33.062,-47.562 -6,-62.187c8.563,-4.625 16.938,-7.656 25.126,-9.094c13.374,-2.375 28.968,-4 34.531,-13.687c3.531,-6.094 -0.906,-13.782 -6.313,-16.063c-19.281,-8.187 -46.031,4.282 -60.156,17.5c-1.531,1.438 -2.281,1.094 -2.281,-1l0.031,-25.062c0,-2.094 1.094,-4.032 2.906,-5.094c23,-13.656 46.406,-17.531 70.125,-11.625c13.938,3.438 23.813,11.406 29.625,23.875c2.657,5.656 3.969,17.125 3.969,34.375c0.063,27.719 -0.281,40.281 1.75,60.969c0.094,1.031 0.5,1.906 1.25,2.656c0.375,0.406 0.563,0.875 0.563,1.375c-0.094,1.094 -0.657,1.625 -1.719,1.625l-32.563,-0.031c-1.531,-0 -2.312,-0.782 -2.312,-2.313l-0,-10.781Zm-4.063,-48.625c-5.031,3.563 -8.5,5.719 -10.468,6.438c-13.532,4.937 -21.032,7.687 -22.469,8.281c-7.594,3.031 -10.875,8.156 -9.844,15.375c0.844,6 7.969,10.656 12.875,10.937c26.781,1.625 32.781,-18.187 30.813,-40.593c-0.063,-0.688 -0.375,-0.813 -0.907,-0.438Z" style="fill:#e47538;fill-rule:nonzero;"/><path d="M626.531,935.344c0.375,5.062 1.469,5.218 3.281,0.531c1.907,-5 3.438,-9.844 7.313,-14.531c10.125,-12.188 23.375,-15.719 39.688,-10.594c1.718,0.531 2.875,2.125 2.875,3.906l-0.063,31.344c0,1.156 -0.563,1.594 -1.688,1.312c-0.937,-0.25 -2.937,-1.093 -5.968,-2.468c-16.844,-7.875 -32.094,-1.282 -39.094,15.343c-3.75,8.907 -2.656,24.5 -2.813,31.969c-0.343,15.344 0.532,29.375 2.594,42.094c0.156,0.906 -0.562,1.75 -1.469,1.75l-36.031,-0.063c-1.406,0.001 -2.125,-0.718 -2.094,-2.124c0.157,-26.188 0.282,-55.063 0.344,-86.625c0.031,-8 -0.812,-19.032 -2.5,-33.094c-0.125,-1 0.656,-1.875 1.656,-1.875l31.907,0.031c1.125,0 1.687,0.594 1.687,1.719c-0.031,10.375 0.094,17.5 0.375,21.375Z" style="fill:#e47538;fill-rule:nonzero;"/><path d="M858.563,991.625c0.843,-0.094 1.406,-0.563 1.687,-1.375l24.406,-76.375c0.313,-0.969 1.188,-1.625 2.188,-1.625l36.781,0c1.25,0 2.063,1.25 1.594,2.406l-68.656,164.032c-0.5,1.187 -1.688,1.968 -2.969,1.968l-33.406,0c-1.344,0 -1.75,-0.625 -1.219,-1.843l19.281,-46.032c0.75,-1.781 0.719,-3.781 -0.031,-5.562l-47.406,-112.813c-0.594,-1.406 -0.125,-2.094 1.375,-2.094l37.156,0c1.25,0 2.062,0.594 2.469,1.782c13.281,41.093 21.468,66.593 24.593,76.531c0.25,0.812 0.969,1.156 2.157,1Z" style="fill:#e47538;fill-rule:nonzero;"/><path d="M525.281,974.25c0.531,-0.375 0.844,-0.25 0.906,0.438c1.969,22.406 -4.031,42.218 -30.812,40.593c-4.906,-0.281 -12.031,-4.937 -12.875,-10.937c-1.031,-7.219 2.25,-12.344 9.844,-15.375c1.437,-0.594 8.937,-3.344 22.469,-8.281c1.968,-0.719 5.437,-2.875 10.468,-6.438Z" style="fill:#1a1e3c;fill-rule:nonzero;"/></g></svg>